Coordinates
version=1
nRows=11
nColumns=63
inDegrees=yes

Units are S.I. units (second, meters, Newtons, ...)
If the header above contains a line with 'inDegrees', this indicates whether rotational values are in degrees (yes) or radians (no).

endheader
time	pelvis_tilt	pelvis_list	pelvis_rotation	pelvis_tx	pelvis_ty	pelvis_tz	hip_flexion_r	hip_adduction_r	hip_rotation_r	knee_angle_r	knee_angle_r_beta	ankle_angle_r	subtalar_angle_r	mtp_angle_r	hip_flexion_l	hip_adduction_l	hip_rotation_l	knee_angle_l	knee_angle_l_beta	ankle_angle_l	subtalar_angle_l	mtp_angle_l	L5_S1_Flex_Ext	L5_S1_Lat_Bending	L5_S1_axial_rotation	L4_L5_Flex_Ext	L4_L5_Lat_Bending	L4_L5_axial_rotation	L3_L4_Flex_Ext	L3_L4_Lat_Bending	L3_L4_axial_rotation	L2_L3_Flex_Ext	L2_L3_Lat_Bending	L2_L3_axial_rotation	L1_L2_Flex_Ext	L1_L2_Lat_Bending	L1_L2_axial_rotation	L1_T12_Flex_Ext	L1_T12_Lat_Bending	L1_T12_axial_rotation	Abs_r3	Abs_r2	Abs_r1	Abs_t1	Abs_t2	neck_flexion	neck_bending	neck_rotation	arm_flex_r	arm_add_r	arm_rot_r	elbow_flex_r	pro_sup_r	wrist_flex_r	wrist_dev_r	arm_flex_l	arm_add_l	arm_rot_l	elbow_flex_l	pro_sup_l	wrist_flex_l	wrist_dev_l
     11.42372881	     -0.85062570	     11.53427861	     87.95093078	      0.08020767	      0.92080462	      0.66870322	    -15.63554659	     -0.65050762	     14.68985384	      7.50240400	      0.13094165	     29.84293760	     -6.30867370	      0.00000000	     -9.23910408	      0.01344312	     -7.11459295	     19.11709484	      0.33365625	     36.96235949	     -4.84953945	      0.00000000	     -0.95458442	     -0.36728419	     -8.10487191	     -1.77275873	     -0.48848797	     -8.61142640	     -1.56828675	     -0.89301477	     -8.61142640	     -1.09099454	     -0.89301477	     -7.09176292	     -0.88642710	     -0.74896591	     -6.58520843	     -0.54544954	     -0.56892320	     -6.07865393	     -6.81850108	     -4.15479217	    -45.07686609	      0.00000000	      0.00000000	      7.72065110	     -9.24587673	     44.12780170	     79.80982385	     41.81016946	    152.82491664	      0.05634939	      0.73907202	    -69.89798814	    -24.60403823	     13.81707437	    -23.54371591	    -15.04883773	    127.90127487	     76.14238098	    -19.49700846	     10.32548313
     11.44067797	     -1.10369617	     11.31975090	     87.66759762	      0.08125672	      0.92041752	      0.66886490	    -15.36047249	     -0.94530063	     14.87704850	      7.57104215	      0.13213961	     29.84889082	     -6.20717376	      0.00000000	     -8.99408859	      0.27516769	     -7.34277407	     19.20482801	      0.33518748	     36.87003651	     -5.03440886	      0.00000000	     -0.92344133	     -0.39557480	     -8.07139538	     -1.71492290	     -0.52611448	     -8.57585760	     -1.51712177	     -0.96180056	     -8.57585760	     -1.05540110	     -0.96180056	     -7.06247096	     -0.85750762	     -0.80665613	     -6.55800875	     -0.52765438	     -0.61274536	     -6.05354654	     -6.59604911	     -4.47482123	    -44.89067971	      0.00000000	      0.00000000	      8.08977469	     -9.17254724	     44.13852212	     79.42697483	     42.24359684	    152.70924042	      0.05638933	      0.71671483	    -69.89810147	    -24.60182367	     12.27693733	    -23.78578826	    -14.91149781	    128.51410378	     74.02466767	    -19.30968097	     10.40364417
     11.45762712	     -1.24790926	     11.30226800	     87.65733613	      0.08183550	      0.92002590	      0.66869062	    -15.36032946	     -1.05662413	     14.93378172	      7.64181965	      0.13337491	     29.77855834	     -6.44699067	      0.00000000	     -9.02766505	      0.39227187	     -7.35216232	     19.17554904	      0.33467647	     36.91876042	     -4.97675316	      0.00000000	     -0.94282241	     -0.40684477	     -7.97273535	     -1.75091551	     -0.54110354	     -8.47103131	     -1.54896294	     -0.98920237	     -8.47103131	     -1.07755174	     -0.98920237	     -6.97614343	     -0.87550489	     -0.82963785	     -6.47784747	     -0.53872873	     -0.63020255	     -5.97955151	     -6.73448622	     -4.60230941	    -44.34196218	      0.00000000	      0.00000000	      8.40799463	     -8.93798981	     44.08439765	     79.42296357	     42.20250489	    152.70687062	      0.05702547	      0.70964815	    -69.89607870	    -24.59795196	     11.65471474	    -23.90843979	    -13.68117412	    128.39850828	     60.58314803	    -18.79152787	      7.71985520
     11.47457627	     -1.32522114	     11.02629558	     87.59770294	      0.08233144	      0.91938942	      0.66799277	    -15.14435966	     -1.13513189	     14.92965410	      7.61835839	      0.13296544	     29.71257823	     -6.45324539	      0.00000000	     -8.78762487	      0.45978309	     -7.27315683	     19.19331230	      0.33498649	     36.87615495	     -5.11283020	      0.00000000	     -0.92943162	     -0.39899735	     -7.80143999	     -1.72604747	     -0.53066648	     -8.28902999	     -1.52696321	     -0.97012216	     -8.28902999	     -1.06224740	     -0.97012216	     -6.82625999	     -0.86307021	     -0.81363540	     -6.33866999	     -0.53107723	     -0.61804690	     -5.85107999	     -6.63883714	     -4.51353785	    -43.38926879	      0.00000000	      0.00000000	      8.55767075	     -8.61009924	     43.89957886	     79.51937234	     41.79929850	    152.98805609	      0.05799766	      0.71076248	    -69.89125870	    -24.59252718	     11.81240766	    -23.75416233	    -12.89084418	    127.76342762	     60.48136740	    -18.44345364	      7.67839259
     11.49152542	     -1.32080719	     10.64155469	     87.40961558	      0.08277596	      0.91872428	      0.66697499	    -14.80325328	     -1.17797005	     14.84012736	      7.56743465	      0.13207665	     29.76345414	     -6.21305880	      0.00000000	     -8.48074863	      0.50982915	     -7.12038845	     19.14921793	      0.33421690	     36.69799099	     -5.57395996	      0.00000000	     -0.91144820	     -0.37527641	     -7.55986738	     -1.69265045	     -0.49911762	     -8.03235909	     -1.49741824	     -0.91244706	     -8.03235909	     -1.04169414	     -0.91244706	     -6.61488396	     -0.84637080	     -0.76526365	     -6.14239224	     -0.52080150	     -0.58130316	     -5.66990053	     -6.51038333	     -4.24520179	    -42.04571439	      0.00000000	      0.00000000	      8.77835062	     -8.31818242	     43.57760986	     79.72847606	     41.06508021	    153.49028175	      0.05933391	      0.72940853	    -69.88323976	    -24.59120449	     12.63269458	    -23.22867304	    -12.20200746	    126.61244119	     62.72202532	    -17.11545008	      7.09368397
     11.50847458	     -1.32638929	     10.16830432	     87.46385080	      0.08276993	      0.91810509	      0.66579323	    -14.39066837	     -1.22881971	     13.85611363	      7.45130576	      0.13004982	     30.06456751	     -5.04374296	      0.00000000	     -8.05226785	      0.55021924	     -6.68480783	     19.11840176	      0.33367906	     36.44686203	     -6.10428749	      0.00000000	     -0.88090447	     -0.35281768	     -7.34863389	     -1.63592769	     -0.46924752	     -7.80792351	     -1.44723795	     -0.85784091	     -7.80792351	     -1.00678572	     -0.85784091	     -6.43005465	     -0.81800789	     -0.71946582	     -5.97076503	     -0.50334881	     -0.54651459	     -5.51147542	     -6.29221252	     -3.99114419	    -40.87089709	      0.00000000	      0.00000000	      8.97639073	     -7.99862055	     43.02367107	     79.89952117	     40.13154445	    154.05075867	      0.06079855	      0.77103870	    -69.87261853	    -24.59410353	     13.76396447	    -22.27618264	    -12.24970486	    125.48106493	     71.85535039	    -14.74424954	      8.31606657
     11.52542373	     -1.25777164	      9.74081105	     87.31427173	      0.08294339	      0.91753908	      0.66471849	    -13.96186700	     -1.25392353	     12.90399515	      7.35504741	      0.12836979	     30.43320616	     -3.73176443	      0.00000000	     -7.68795900	      0.51826307	     -6.61420080	     19.09574443	      0.33328361	     36.29847675	     -6.40903087	      0.00000000	     -0.85921430	     -0.32726467	     -7.10955598	     -1.59564688	     -0.43526201	     -7.55390322	     -1.41160317	     -0.79571131	     -7.55390322	     -0.98199602	     -0.79571131	     -6.22086148	     -0.79786640	     -0.66735811	     -5.77651423	     -0.49095505	     -0.50693297	     -5.33216698	     -6.13728183	     -3.70208337	    -39.54121747	      0.00000000	      0.00000000	      9.27148944	     -7.82751169	     42.29774445	     80.03799647	     39.14596863	    154.71098371	      0.06211291	      0.81409270	    -69.86130490	    -24.59482234	     14.75935476	    -21.39860223	    -12.15151546	    124.80854352	     77.07033831	    -12.42554043	      9.20100793
     11.54237288	     -1.27847083	      9.53115678	     87.45781904	      0.08339859	      0.91723462	      0.66352550	    -13.84401149	     -1.20337787	     12.63585470	      7.18279065	      0.12536335	     30.59001235	     -3.86227044	      0.00000000	     -7.55731219	      0.46302547	     -6.52227028	     19.07595500	      0.33293822	     36.21556634	     -6.33516430	      0.00000000	     -0.85387490	     -0.32699101	     -7.03394258	     -1.58573108	     -0.43489804	     -7.47356399	     -1.40283107	     -0.79504594	     -7.47356399	     -0.97589362	     -0.79504594	     -6.15469976	     -0.79290823	     -0.66680006	     -5.71507835	     -0.48790412	     -0.50650907	     -5.27545694	     -6.09914302	     -3.69898767	    -39.12067846	      0.00000000	      0.00000000	      9.52122606	     -7.48605033	     42.13765331	     79.91842187	     38.74036283	    154.76606940	      0.06320703	      0.87131150	    -69.85184752	    -24.60295716	     14.64894473	    -21.41183097	    -12.13396743	    124.98747992	     77.17010679	    -12.31806007	      9.24364372
     11.55932203	     -1.25687742	      9.14746578	     87.60079140	      0.08309595	      0.91673063	      0.66322847	    -13.34757249	     -1.39135744	      8.87686565	      7.18304571	      0.12536780	     31.62482168	      1.08726502	      0.00000000	     -7.10234293	      0.40256782	     -6.50726876	     19.19910387	      0.33508758	     36.22897217	     -6.38759040	      0.00000000	     -0.81964379	     -0.32476563	     -6.98263978	     -1.52216048	     -0.43193829	     -7.41905476	     -1.34659278	     -0.78963516	     -7.41905476	     -0.93677088	     -0.78963516	     -6.10980981	     -0.76112122	     -0.66226208	     -5.67339482	     -0.46834446	     -0.50306197	     -5.23697983	     -5.85463360	     -3.67381381	    -38.83534766	      0.00000000	      0.00000000	      9.54467826	     -7.03053196	     41.48253095	     79.69124383	     38.24000027	    155.23660273	      0.06373685	      0.87852062	    -69.85136119	    -24.58668703	     14.25431998	    -21.23531439	    -13.43994499	    125.09811653	     81.49768589	     -8.58570016	     11.63665256
     11.57627119	     -1.36746260	      9.00670468	     87.62753846	      0.08350335	      0.91637258	      0.66280956	    -13.24821390	     -1.50316693	      8.51752948	      7.02174971	      0.12255265	     31.79146619	      1.45429565	      0.00000000	     -6.96647602	      0.45636774	     -6.69987864	     19.27196955	      0.33635932	     36.24678090	     -6.36316003	      0.00000000	     -0.80034431	     -0.34564631	     -7.01608567	     -1.48631941	     -0.45970959	     -7.45459102	     -1.31488566	     -0.84040444	     -7.45459102	     -0.91471351	     -0.84040444	     -6.13907496	     -0.74319972	     -0.70484196	     -5.70056960	     -0.45731674	     -0.53540614	     -5.26206425	     -5.71677935	     -3.91002020	    -39.02136365	      0.00000000	      0.00000000	      9.63207937	     -6.63305551	     41.50435679	     79.31066192	     38.41627843	    155.16470565	      0.06390145	      0.88367124	    -69.85481037	    -24.57348834	     12.54497001	    -22.15933805	    -14.86471958	    125.62039867	     80.85222881	     -8.09586937	     12.19647464
     11.59322034	     -1.47641966	      8.98772340	     87.77311327	      0.08387072	      0.91602883	      0.66255265	    -13.26978579	     -1.58019800	      8.04799611	      6.97143896	      0.12167456	     31.95765785	      1.90597793	      0.00000000	     -6.95098264	      0.46700005	     -6.92929364	     19.33675962	      0.33749012	     36.38558848	     -6.15337410	      0.00000000	     -0.79488376	     -0.37316280	     -7.09764115	     -1.47617863	     -0.49630653	     -7.54124372	     -1.30591453	     -0.90730804	     -7.54124372	     -0.90847265	     -0.90730804	     -6.21043600	     -0.73812906	     -0.76095359	     -5.76683343	     -0.45419658	     -0.57802918	     -5.32323086	     -5.67777521	     -4.22129226	    -39.47495076	      0.00000000	      0.00000000	      9.61412255	     -6.09043562	     41.66830543	     78.97148060	     38.74710962	    155.02953162	      0.06436531	      0.88728022	    -69.85797499	    -24.55626761	     10.19900876	    -23.29636762	    -17.02545872	    126.17362902	     80.38105134	     -7.64156954	     12.53111868
